<?xml version="1.0" encoding="UTF-8" standalone="no"?>
<!-- Created with Inkscape (http://www.inkscape.org/) -->
<svg id="Layer_1" fill="#E8E8E8" data-name="Layer 1" viewBox="0 0 79.154 78.143" xmlns="http://www.w3.org/2000/svg" xmlns:bx="https://boxy-svg.com">
  <defs>
    <bx:grid x="0" y="0" width="44.442" height="36.21"></bx:grid>
  </defs>
  <rect x="1.96" width="75" height="75" rx="15" ry="15" style="fill-opacity: 1; fill: rgba(255, 255, 255, 0); stroke: rgb(232, 232, 232); stroke-width: 2px;" y="1.531"></rect>
  <path id="dashboard_1_" d="M 60.414 59.359 L 17.893 59.359 C 17.611 59.359 17.383 59.131 17.383 58.849 L 17.383 16.328 C 17.383 16.046 17.611 15.818 17.893 15.818 L 60.414 15.818 C 60.696 15.818 60.924 16.046 60.924 16.328 L 60.924 58.849 C 60.924 59.131 60.696 59.359 60.414 59.359 Z M 18.404 58.339 L 59.904 58.339 L 59.904 32.429 L 18.404 32.429 L 18.404 58.339 Z M 35.412 31.409 L 59.904 31.409 L 59.904 16.839 L 35.412 16.839 L 35.412 31.409 Z M 18.404 31.409 L 34.391 31.409 L 34.391 16.839 L 18.404 16.839 L 18.404 31.409 Z M 29.232 53.69 C 25.042 53.69 21.635 50.281 21.635 46.093 L 22.656 46.093 C 22.656 49.72 25.607 52.669 29.232 52.669 C 32.858 52.669 35.809 49.72 35.809 46.093 C 35.809 42.466 32.859 39.516 29.232 39.516 L 29.232 38.496 C 33.422 38.496 36.829 41.905 36.829 46.093 C 36.829 50.281 33.422 53.69 29.232 53.69 Z M 55.255 53.18 L 54.234 53.18 L 54.234 37.589 L 55.256 37.589 L 55.255 53.18 Z M 49.585 53.18 L 48.565 53.18 L 48.565 41.841 L 49.587 41.841 L 49.585 53.18 Z M 43.916 53.18 L 42.896 53.18 L 42.896 48.928 L 43.917 48.928 L 43.916 53.18 Z" style="stroke: rgb(232, 232, 232);"></path>
  <rect id="_Transparent_Rectangle" style="fill:none;" width="32" height="32" transform="matrix(1, 0, 0, 1, 80.910755, 59.359033)"></rect>
  <path style="fill: rgb(216, 216, 216); stroke: rgb(232, 232, 232);" d="M 38.134 21.331 L 57.039 21.331"></path>
  <path style="fill: rgb(216, 216, 216); stroke: rgb(232, 232, 232);" d="M 43.042 23.876 L 54.313 23.876"></path>
</svg>