<?xml version="1.0" encoding="UTF-8" standalone="no"?>
<!-- Created with Inkscape (http://www.inkscape.org/) -->
<svg id="Layer_1" fill="#E8E8E8" data-name="Layer 1" viewBox="7.553 25.419 63.597 45.182" xmlns="http://www.w3.org/2000/svg">
  <defs></defs>
  <path class="a" d="M 39.35 38.577 C 34.465 38.691 26.285 40.243 22.196 41.593 C 21.385 41.861 20.343 42.264 20.071 42.687 C 19.645 43.349 19.645 44.385 19.547 45.346 C 19.32 47.556 19.28 59.488 19.347 61.952 C 19.33 63.069 19.56 63.358 20.276 63.85 C 23.58 66.119 33.264 69.061 39.351 69.176 C 45.437 69.062 55.122 66.119 58.425 63.85 C 59.141 63.358 59.37 63.069 59.354 61.952 C 59.422 59.489 59.382 47.556 59.154 45.346 C 59.055 44.385 59.055 43.35 58.63 42.687 C 58.358 42.264 57.316 41.861 56.505 41.593 C 52.416 40.243 44.237 38.691 39.35 38.577 Z" style="stroke-linecap: square; fill: rgba(255, 255, 255, 0);"></path>
  <path class="b" d="M 39.35 38.048 C 36.967 38.139 34.59 38.385 32.238 38.789 C 29.777 39.177 27.327 39.66 24.911 40.269 C 23.927 40.517 22.949 40.784 21.988 41.105 C 21.347 41.29 20.733 41.557 20.163 41.902 C 19.61 42.271 19.354 42.822 19.227 43.462 C 19.079 44.32 18.993 45.187 18.967 46.059 C 18.931 46.718 18.911 47.379 18.893 48.039 C 18.844 49.896 18.823 51.753 18.808 53.611 C 18.792 55.487 18.786 57.363 18.79 59.24 C 18.792 59.908 18.796 60.576 18.805 61.244 C 18.816 61.974 18.725 62.812 19.113 63.459 C 19.357 63.868 19.762 64.147 20.152 64.404 C 20.475 64.617 20.812 64.808 21.155 64.989 C 22.02 65.441 22.911 65.845 23.82 66.201 C 26.04 67.078 28.316 67.803 30.634 68.37 C 32.988 68.981 35.389 69.401 37.811 69.624 C 38.867 69.711 39.927 69.709 40.982 69.617 C 42.175 69.513 43.363 69.342 44.542 69.132 C 46.982 68.688 49.389 68.084 51.75 67.322 C 53.756 66.678 55.771 65.947 57.631 64.945 C 57.961 64.768 58.286 64.579 58.597 64.371 C 58.985 64.113 59.397 63.825 59.622 63.403 C 59.971 62.742 59.888 61.926 59.898 61.199 C 59.919 59.633 59.917 58.068 59.911 56.503 C 59.905 54.524 59.888 52.545 59.86 50.567 C 59.837 49.05 59.818 47.53 59.733 46.014 C 59.712 45.122 59.617 44.231 59.451 43.352 C 59.35 42.734 58.989 42.189 58.461 41.851 C 57.873 41.518 57.249 41.255 56.599 41.067 C 54.482 40.4 52.326 39.86 50.143 39.449 C 47.622 38.943 45.076 38.53 42.519 38.266 C 41.466 38.156 40.409 38.074 39.35 38.048 C 38.67 38.032 38.67 39.09 39.35 39.107 C 41.629 39.189 43.898 39.422 46.146 39.804 C 48.566 40.185 50.977 40.658 53.356 41.251 C 54.32 41.491 55.279 41.751 56.224 42.057 C 56.796 42.222 57.348 42.448 57.871 42.732 C 57.96 42.78 58.043 42.838 58.119 42.904 C 58.137 42.92 58.22 43.016 58.188 42.973 C 58.146 42.916 58.205 43.006 58.207 43.01 C 58.227 43.05 58.251 43.088 58.271 43.127 C 58.386 43.396 58.461 43.679 58.493 43.969 C 58.699 45.343 58.717 46.763 58.752 48.15 C 58.799 49.98 58.821 51.809 58.836 53.639 C 58.851 55.468 58.857 57.298 58.853 59.128 C 58.851 59.803 58.848 60.478 58.839 61.153 C 58.836 61.381 58.833 61.61 58.827 61.838 C 58.822 62.048 58.827 62.257 58.81 62.467 C 58.804 62.553 58.788 62.638 58.76 62.722 C 58.749 62.766 58.734 62.811 58.718 62.854 C 58.753 62.759 58.704 62.873 58.686 62.905 C 58.677 62.923 58.61 63.025 58.644 62.977 C 58.679 62.928 58.59 63.039 58.573 63.056 C 58.542 63.09 58.508 63.122 58.474 63.152 C 58.451 63.174 58.359 63.25 58.375 63.238 C 58.281 63.313 58.065 63.457 57.916 63.552 C 57.59 63.761 57.253 63.951 56.909 64.13 C 56.517 64.335 56.115 64.527 55.71 64.708 C 55.243 64.919 54.89 65.066 54.406 65.257 C 52.226 66.106 49.992 66.811 47.72 67.366 C 45.469 67.95 43.175 68.353 40.86 68.567 C 39.825 68.652 38.784 68.649 37.749 68.56 C 36.621 68.464 35.56 68.311 34.441 68.11 C 32.045 67.675 29.681 67.084 27.362 66.342 C 25.39 65.714 23.512 65.04 21.707 64.086 C 21.377 63.911 21.05 63.725 20.734 63.52 C 20.67 63.479 20.607 63.436 20.544 63.393 C 20.488 63.355 20.433 63.316 20.378 63.277 C 20.356 63.261 20.335 63.245 20.313 63.228 C 20.356 63.261 20.323 63.234 20.3 63.215 C 20.229 63.156 20.161 63.092 20.098 63.025 C 20.079 63.003 20.058 62.98 20.04 62.958 C 20.045 62.963 20.091 63.029 20.059 62.979 C 20.033 62.935 20.008 62.893 19.984 62.849 C 19.937 62.765 19.997 62.908 19.968 62.811 C 19.951 62.757 19.935 62.704 19.923 62.65 C 19.916 62.624 19.896 62.513 19.899 62.539 C 19.906 62.59 19.895 62.495 19.895 62.495 C 19.89 62.455 19.887 62.414 19.885 62.374 C 19.873 62.184 19.878 61.995 19.873 61.806 C 19.868 61.573 19.864 61.339 19.861 61.107 C 19.842 59.554 19.844 58.002 19.85 56.449 C 19.855 54.515 19.872 52.581 19.899 50.648 C 19.923 49.138 19.943 47.625 20.022 46.118 C 20.045 45.36 20.113 44.605 20.227 43.856 C 20.264 43.572 20.348 43.296 20.478 43.04 C 20.493 43.011 20.511 42.982 20.528 42.955 C 20.525 42.962 20.472 43.021 20.513 42.974 C 20.553 42.93 20.596 42.89 20.641 42.852 C 20.596 42.889 20.706 42.809 20.722 42.799 C 20.785 42.758 20.85 42.72 20.916 42.683 C 21.439 42.415 21.985 42.197 22.549 42.035 C 24.649 41.386 26.785 40.856 28.946 40.449 C 31.362 39.968 33.798 39.569 36.25 39.318 C 37.28 39.213 38.315 39.132 39.35 39.107 C 40.031 39.091 40.033 38.032 39.35 38.048 Z" style=""></path>
  <path class="b" d="M 59.159 63.893 C 61.361 63.063 63.389 61.828 65.136 60.251 C 66.977 58.541 68.406 56.436 69.318 54.094 C 70.273 51.672 70.616 49.052 70.314 46.466 C 70.15 45.168 69.85 43.857 69.201 42.708 C 68.595 41.629 67.635 40.793 66.483 40.342 C 63.645 39.217 60.709 40.679 58.383 42.268 C 58.137 42.421 58.054 42.739 58.194 42.992 C 58.344 43.243 58.666 43.326 58.919 43.181 C 60.815 41.885 63.108 40.58 65.472 41.134 C 66.489 41.355 67.388 41.942 67.999 42.784 C 68.69 43.769 69.016 44.96 69.207 46.133 C 69.961 50.785 68.187 55.675 64.91 58.997 C 63.193 60.696 61.137 62.017 58.878 62.872 C 58.601 62.956 58.439 63.242 58.508 63.523 C 58.587 63.804 58.877 63.969 59.16 63.893 L 59.159 63.893 Z" style=""></path>
  <path class="b" d="M 19.761 62.872 C 17.754 62.11 15.903 60.983 14.303 59.551 C 12.602 58.001 11.269 56.09 10.399 53.959 C 9.493 51.736 9.128 49.332 9.331 46.94 C 9.53 44.78 10.236 42.261 12.437 41.363 C 14.994 40.319 17.624 41.75 19.72 43.181 C 20.071 43.387 20.514 43.135 20.517 42.727 C 20.517 42.538 20.418 42.362 20.254 42.267 C 18.123 40.811 15.608 39.511 12.952 40.099 C 11.778 40.35 10.725 40.994 9.968 41.927 C 9.145 42.967 8.706 44.25 8.466 45.54 C 7.518 50.611 9.315 55.963 12.879 59.642 C 14.727 61.552 17.017 62.928 19.479 63.893 C 19.761 63.969 20.051 63.804 20.13 63.524 C 20.202 63.242 20.039 62.955 19.761 62.872 Z" style=""></path>
  <path class="c" d="M 22.694 49.976 C 24.741 49.395 26.856 49.022 28.946 48.641 C 30.233 48.407 31.523 48.187 32.815 47.979 C 33.428 47.881 34.042 47.787 34.657 47.696 C 34.944 47.653 35.231 47.612 35.519 47.57 C 35.653 47.552 35.786 47.534 35.919 47.516 L 36.114 47.489 L 36.187 47.479 L 36.236 47.472 C 37.068 47.362 37.902 47.254 38.74 47.2 C 39.431 47.17 40.122 47.189 40.811 47.255 C 43.268 47.438 45.695 47.759 48.089 48.11 C 50.449 48.458 52.828 48.819 55.144 49.4 C 55.334 49.447 55.523 49.497 55.711 49.551 C 56.368 49.737 56.648 48.716 55.993 48.53 C 53.809 47.91 51.53 47.572 49.29 47.228 C 46.723 46.833 44.143 46.487 41.556 46.257 C 40.748 46.168 39.936 46.124 39.123 46.123 C 38.399 46.152 37.676 46.219 36.959 46.32 C 34.515 46.621 32.083 47.016 29.66 47.443 C 27.417 47.838 25.165 48.241 22.958 48.809 C 22.775 48.856 22.594 48.904 22.412 48.955 C 21.758 49.142 22.036 50.163 22.694 49.977 L 22.694 49.976 Z" style="fill: rgb(207, 207, 207);"></path>
  <path class="c" d="M 22.497 59.437 C 24.616 59.748 26.733 60.068 28.854 60.369 C 31.377 60.725 33.905 61.072 36.441 61.324 C 37.357 61.416 38.275 61.5 39.195 61.522 C 40.052 61.529 40.909 61.486 41.761 61.397 C 44.241 61.175 46.71 60.819 49.171 60.448 C 51.299 60.128 53.423 59.781 55.544 59.425 L 56.032 59.344 C 56.313 59.264 56.478 58.974 56.402 58.692 C 56.319 58.414 56.032 58.251 55.751 58.322 C 53.8 58.65 51.849 58.972 49.894 59.273 C 47.412 59.657 45.03 60.007 42.544 60.263 C 41.6 60.361 40.652 60.449 39.703 60.464 C 38.877 60.465 38.051 60.425 37.231 60.34 C 34.816 60.128 32.397 59.802 30.038 59.474 C 27.806 59.165 25.579 58.832 23.351 58.501 C 23.161 58.473 22.97 58.445 22.779 58.417 C 22.498 58.348 22.213 58.51 22.127 58.787 C 22.059 59.036 22.213 59.396 22.497 59.437 Z" style="fill: rgb(207, 207, 207);"></path>
  <path class="c" d="M 22.584 54.758 C 24.954 54.758 27.326 54.709 29.695 54.659 C 32.034 54.608 34.374 54.548 36.715 54.506 C 38.377 54.477 40.039 54.479 41.702 54.462 C 43.936 54.442 46.17 54.411 48.404 54.384 C 50.621 54.358 52.839 54.331 55.056 54.326 C 55.286 54.326 55.516 54.326 55.745 54.326 C 56.427 54.326 56.428 53.266 55.745 53.266 C 53.602 53.266 51.456 53.291 49.312 53.316 C 47.016 53.342 44.72 53.373 42.423 53.398 C 40.755 53.415 39.086 53.411 37.417 53.435 C 35.161 53.47 32.904 53.53 30.648 53.579 C 28.23 53.633 25.811 53.685 23.392 53.696 C 23.123 53.697 22.854 53.698 22.584 53.698 C 21.903 53.698 21.901 54.758 22.584 54.758 Z" style="fill: rgb(207, 207, 207);"></path>
  <path class="d" d="M 24.429 43.998 L 24.913 43.855" style="fill: none; stroke: rgb(207, 207, 207); stroke-linecap: round; stroke-linejoin: round;"></path>
  <path class="e" d="M 27.667 43.109 C 31.502 42.184 35.43 41.701 39.375 41.669 C 45.271 41.621 49.879 42.7 52.622 43.34" style="fill: none; stroke: rgb(207, 207, 207); stroke-dasharray: 5.031px, 15.092px; stroke-linecap: round; stroke-linejoin: round;"></path>
  <path class="d" d="M 54.015 43.654 C 54.197 43.692 54.362 43.722 54.512 43.747" style="fill: none; stroke: rgb(207, 207, 207); stroke-linecap: round; stroke-linejoin: round;"></path>
  <path class="d" d="M 24.807 63.288 C 24.949 63.331 25.11 63.379 25.291 63.435" style="fill: none; stroke: rgb(207, 207, 207); stroke-linecap: round; stroke-linejoin: round;"></path>
  <path class="f" d="M 28.352 64.292 C 31.961 65.175 35.661 65.632 39.375 65.653 C 45.11 65.699 49.319 64.571 51.937 63.871" style="fill: none; stroke: rgb(207, 207, 207); stroke-dasharray: 5.608px, 16.825px; stroke-linecap: round; stroke-linejoin: round;"></path>
  <path class="d" d="M 53.479 63.479 C 53.659 63.439 53.824 63.407 53.975 63.382" style="fill: none; stroke: rgb(207, 207, 207); stroke-linecap: round; stroke-linejoin: round;"></path>
  <path class="b" d="M 23.071 62.629 C 22.959 60.394 23.003 58.142 23.006 55.904 C 23.009 52.906 23.027 49.907 23.098 46.909 C 23.12 45.958 23.12 44.995 23.22 44.048 C 23.218 43.756 22.982 43.521 22.691 43.518 C 22.401 43.525 22.168 43.757 22.162 44.048 C 22.075 44.861 22.071 45.686 22.047 46.502 C 22.012 47.869 21.992 49.235 21.978 50.601 C 21.945 53.616 21.938 56.631 21.956 59.646 C 21.964 60.64 21.962 61.637 22.01 62.629 C 22.017 62.92 22.251 63.152 22.54 63.16 C 22.831 63.157 23.066 62.92 23.07 62.629 L 23.071 62.629 Z" style=""></path>
  <path class="b" d="M 56.741 62.629 C 56.851 60.394 56.807 58.142 56.805 55.904 C 56.801 52.906 56.784 49.907 56.714 46.909 C 56.691 45.958 56.691 44.995 56.59 44.048 C 56.582 43.758 56.35 43.526 56.061 43.518 C 55.769 43.521 55.533 43.756 55.532 44.048 C 55.618 44.861 55.623 45.686 55.645 46.502 C 55.681 47.869 55.7 49.235 55.715 50.601 C 55.748 53.616 55.755 56.631 55.737 59.646 C 55.73 60.64 55.732 61.637 55.682 62.629 C 55.682 63.037 56.123 63.292 56.476 63.088 C 56.64 62.994 56.742 62.819 56.742 62.629 L 56.741 62.629 Z" style=""></path>
  <ellipse style="stroke: rgba(0, 0, 0, 0);" cx="49.976" cy="29.919" rx="2.933" ry="3.389"></ellipse>
  <path style="stroke: rgb(232, 232, 232); fill: rgba(216, 216, 216, 0); stroke-width: 2px; stroke-linecap: round;" d="M 47.073 24.95 C 51.955 24.95 55.126 30.068 52.933 34.411" transform="matrix(0.538266, -0.842775, 0.842775, 0.538266, -1.762576, 56.143877)"></path>
  <ellipse style="stroke: rgba(0, 0, 0, 0);" cx="28.665" cy="29.944" rx="2.933" ry="3.389"></ellipse>
  <path style="stroke: rgb(232, 232, 232); fill: rgba(216, 216, 216, 0); stroke-width: 2px; stroke-linecap: round;" d="M 25.762 24.975 C 30.644 24.975 33.815 30.093 31.622 34.436" transform="matrix(0.538266, -0.842775, 0.842775, 0.538266, -11.623659, 38.195043)"></path>
</svg>