<?xml version="1.0" encoding="UTF-8" standalone="no"?>
<!-- Created with Inkscape (http://www.inkscape.org/) -->
<svg id="Layer_1" fill="#E8E8E8" data-name="Layer 1" viewBox="0 0 79.154 78.143" xmlns="http://www.w3.org/2000/svg">
  <defs></defs>
  <title>thought- cloud</title>
  <rect x="1.96" y="1.531" width="75" height="75" rx="15" ry="15" style="fill-opacity: 1; fill: rgba(255, 255, 255, 0); stroke: rgb(232, 232, 232); stroke-width: 2px;"></rect>
  <title>thought- cloud</title>
  <path d="M 14.596 35.031 C 13.526 33.408 13.167 31.419 13.604 29.526 C 13.926 28.037 14.585 26.643 15.53 25.45 C 16.482 24.225 17.695 23.227 19.081 22.53 C 20.991 21.551 23.208 21.354 25.262 21.981 C 25.728 20.035 26.938 18.349 28.633 17.285 C 30.175 16.289 31.917 15.645 33.735 15.396 C 35.554 15.117 37.41 15.199 39.197 15.637 C 41.365 16.201 43.253 17.304 44.395 19.019 C 46.197 17.721 48.416 17.14 50.623 17.386 C 52.388 17.533 54.104 18.033 55.672 18.856 C 57.216 19.632 58.557 20.757 59.593 22.141 C 60.669 23.566 61.166 25.345 60.985 27.121 C 63.728 27.295 66.162 28.939 67.349 31.418 C 67.922 32.542 68.273 33.765 68.384 35.022 C 68.5 36.288 68.366 37.565 67.989 38.779 C 67.117 41.539 64.95 43.876 61.245 44.56 C 61.314 45.992 60.981 47.416 60.281 48.669 C 59.277 50.435 57.817 51.899 56.052 52.908 C 54.193 54.007 52.075 54.593 49.915 54.608 C 47.593 54.6 45.334 53.853 43.465 52.474 C 41.587 54.117 38.364 54.911 35.199 54.849 C 33.846 54.829 32.5 54.645 31.191 54.3 C 29.964 53.99 28.802 53.457 27.766 52.729 C 26.761 52.03 26.022 51.012 25.671 49.839 C 22.087 50.624 19.153 50.07 16.961 48.765 C 14.111 47.06 12.376 43.974 12.4 40.653 C 12.403 38.57 13.187 36.564 14.596 35.031 Z M 12.929 57.556 C 13.817 57.544 14.686 57.801 15.424 58.293 C 17.039 59.243 17.039 61.578 15.424 62.527 C 14.686 63.02 13.817 63.276 12.929 63.264 C 12.044 63.276 11.176 63.02 10.439 62.527 C 8.825 61.578 8.825 59.243 10.439 58.293 C 11.176 57.801 12.044 57.544 12.929 57.556 Z M 14.375 59.772 C 13.943 59.498 13.441 59.357 12.929 59.367 C 12.418 59.356 11.915 59.498 11.484 59.772 C 10.993 59.971 10.902 60.628 11.32 60.953 C 11.37 60.993 11.426 61.024 11.484 61.048 C 11.915 61.325 12.417 61.468 12.929 61.458 C 13.441 61.467 13.944 61.325 14.375 61.048 C 14.866 60.849 14.957 60.192 14.539 59.867 C 14.489 59.828 14.434 59.796 14.375 59.772 Z M 21.692 52.026 C 22.913 52.012 24.11 52.367 25.127 53.043 C 27.265 54.285 27.265 57.373 25.127 58.616 C 24.105 59.294 22.903 59.646 21.678 59.627 C 20.45 59.646 19.246 59.294 18.223 58.616 C 16.084 57.373 16.084 54.285 18.223 53.043 C 19.246 52.364 20.45 52.01 21.678 52.026 L 21.692 52.026 Z M 24.1 54.522 C 23.385 54.057 22.546 53.819 21.692 53.838 C 20.838 53.819 19.999 54.057 19.283 54.522 C 18.276 54.994 18.16 56.38 19.073 57.016 C 19.139 57.061 19.21 57.102 19.283 57.137 C 20.001 57.598 20.839 57.834 21.692 57.816 C 22.544 57.834 23.383 57.598 24.1 57.137 C 25.107 56.664 25.224 55.278 24.311 54.643 C 24.244 54.596 24.174 54.556 24.1 54.522 Z M 15.81 29.978 C 15.448 31.516 15.858 33.134 16.908 34.313 L 16.995 34.41 C 17.39 34.894 17.317 35.607 16.831 36 C 15.444 37.145 14.645 38.854 14.654 40.653 C 14.636 43.18 15.955 45.528 18.123 46.828 C 20.049 47.985 22.809 48.379 26.311 47.344 C 26.42 47.314 26.531 47.3 26.644 47.301 C 27.276 47.313 27.774 47.844 27.747 48.476 C 27.762 49.468 28.274 50.388 29.11 50.923 C 29.919 51.48 30.821 51.887 31.774 52.122 C 32.904 52.421 34.065 52.583 35.233 52.604 C 38.258 52.662 41.259 51.891 42.458 50.287 L 42.516 50.22 C 42.923 49.746 43.636 49.694 44.106 50.104 C 45.71 51.53 47.779 52.321 49.925 52.33 C 51.684 52.315 53.408 51.835 54.92 50.938 C 56.327 50.136 57.491 48.972 58.292 47.565 C 58.94 46.455 59.153 45.143 58.889 43.885 C 58.867 43.812 58.852 43.736 58.846 43.659 C 58.799 43.035 59.268 42.493 59.892 42.45 C 63.215 42.199 65.118 40.339 65.826 38.114 C 66.4 36.24 66.227 34.218 65.344 32.469 C 64.323 30.331 62.036 29.1 59.689 29.424 C 58.869 29.513 58.234 28.721 58.499 27.94 C 59.01 26.421 58.729 24.746 57.753 23.475 C 56.928 22.373 55.857 21.479 54.626 20.864 C 53.33 20.187 51.912 19.777 50.455 19.655 C 48.306 19.487 46.23 20.05 44.944 21.621 C 44.817 21.776 44.651 21.896 44.463 21.967 C 43.87 22.178 43.22 21.863 43.017 21.268 C 42.4 19.501 40.71 18.378 38.658 17.844 C 37.153 17.479 35.592 17.412 34.062 17.646 C 32.58 17.838 31.157 18.353 29.895 19.154 C 28.353 20.085 27.389 21.736 27.338 23.537 C 27.348 23.732 27.305 23.925 27.212 24.096 C 26.928 24.65 26.247 24.866 25.695 24.578 C 23.939 23.648 21.838 23.637 20.073 24.549 C 18.991 25.094 18.044 25.876 17.304 26.837 C 16.574 27.756 16.063 28.828 15.81 29.973 L 15.81 29.978 Z" style=""></path>
</svg>